<svg xmlns="http://www.w3.org/2000/svg" xmlns:xlink="http://www.w3.org/1999/xlink" viewBox="0 0 111.125 127.083" fill="#fff" fill-rule="evenodd" stroke="#000" stroke-linecap="round" stroke-linejoin="round"><use xlink:href="#A" x="1.042" y="1.042"/><symbol id="A" overflow="visible"><g stroke="none" fill-rule="nonzero"><path d="M26.029 124.015l-.458-5.861c-3.292-2.073-6.325-4.533-9.033-7.327l8.285-20.979c2.131-5.396 3.406-7.417 6.298-5.396 6.265 4.375 13.221 6.087 15.885 8.021 9.017 7.694 25.708 9.635 40.292 3.042 6.25 0 19.938 7.963 19.938 18.958v9.471z" fill="#92d3f5"/><path d="M17.975 105.265c-5.467-6.771-11.9-9.287-12.942-13.454C3.902 87.29-1.619 59.257.466 50.405c.834-5.282 1.009-10.647.521-15.973-.125-2.079 1.758-9.765 1.758-13.931a31.34 31.34 0 0 1 .781-8.202c2.475-5.337 8.906-4.167 7.875 0a32.5 32.5 0 0 1 .325-8.008c.392-2.667 7.704-4.625 6.64 2.604.323-2.005.892-3.963 1.694-5.829.928-1.03 2.411-1.351 3.682-.796s2.045 1.859 1.922 3.24c.027.749.001 1.5-.079 2.246s4.696-.208 3.479 6.067c-.417 2.046-3.402 21.313-3.402 21.313.954-.954 3.011-9.39 6.308-9.39 4.417 0 4.167 3.035 4.167 3.035s-1.256 2.985-2.667 5.569c-2.108 3.854-4.75 11.458-6.833 13.542-3.485 2.32-7.119 4.408-10.879 6.25L21.8 77.661s.348 1.121 5.2 4.7M44.658 59.44c-.212 16.667 8.465 29.167 22.917 29.167 14.715 0 23.048-12.5 23.048-29.167 0-10.417-6.25-20.833-6.25-20.833-16.667 0-20.833 6.25-33.333 2.083-3.859 5.52-6.072 12.022-6.381 18.75z" fill="#fcea2b"/><path d="M84.951 35.874c-15.569 0-18.158 7.479-34.083 3.917-7.092-1.608-3.994 34.233-3.994 34.233-6.25 0-8.333-14.583-8.333-29.167 0-12.5 10.417-25 29.167-25s29.167 12.5 29.167 25c0 14.583-2.083 29.167-8.333 29.167 0 0 1.494-38.15-3.588-38.15z" fill="#f1b31c"/></g><path d="M25.987 121.932a6.21 6.21 0 0 0-1.754-5.621l-8.663-6.879 10.417-25" fill="none" stroke-width="4.167"/><path d="M79.889 57.349a4.17 4.17 0 0 1-4.167 4.167 4.17 4.17 0 0 1-4.167-4.167 4.17 4.17 0 0 1 4.167-4.167 4.17 4.17 0 0 1 4.167 4.167m-16.667 0a4.17 4.17 0 0 1-4.167 4.167 4.17 4.17 0 0 1-4.167-4.167 4.17 4.17 0 0 1 4.167-4.167 4.17 4.17 0 0 1 4.167 4.167" stroke="none" fill="#000" fill-rule="nonzero"/><g fill="none" stroke-width="4.167"><path d="M61.404 74.015c3.922 2.019 8.578 2.019 12.5 0M21.214 2.728c-1.458 8.177-2.344 13.817-3.542 23.35m6.396 7.031c.61-4.506 2.288-14.062 3.244-23.698m79.948 112.5l.208-6.25c0-14.583-18.958-20.833-18.958-20.833-14.583 4.167-22.917 4.167-33.333 2.083-6.823-1.365-20.89-9.583-31.25-16.667 0 0-8.125-19.792-8.125-28.125 0-1.212 11.567-4.154 14.583-13.542l3.75-11.821M9.32 26.099c1.792-10.575 3.258-17.958 4.167-20.833m4.488 98.375C7.558 95.307 4.249 92.974 3.07 86.495-1.096 63.578.987 56.12.987 48.995c0-2.083.033 0 .033-12.5.002-1.692 1.058-9.152 2.05-14.583.466-2.83 1.163-5.617 2.083-8.333m41.721 60.446c-6.25 0-8.333-14.583-8.333-29.167 0-12.5 10.417-25 29.167-25s29.167 12.5 29.167 25c0 14.583-2.083 29.167-8.333 29.167"/><path d="M44.658 59.441c-.212 16.667 10.285 29.167 22.917 29.167 12.369 0 23.048-12.5 23.048-29.167 0-10.417-6.25-22.917-6.25-22.917-16.667 0-20.833 6.25-33.333 2.083 0 0-6.25 10.417-6.381 20.833z"/></g></symbol></svg>